<?xml version="1.0" encoding="UTF-8"?>
<!DOCTYPE svg PUBLIC "-//W3C//DTD SVG 1.1//EN" "http://www.w3.org/Graphics/SVG/1.1/DTD/svg11.dtd">
<svg xmlns="http://www.w3.org/2000/svg" version="1.1" width="512px" height="512px" style="shape-rendering:geometricPrecision; text-rendering:geometricPrecision; image-rendering:optimizeQuality; fill-rule:evenodd; clip-rule:evenodd" xmlns:xlink="http://www.w3.org/1999/xlink">
<g><path style="opacity:0.963" fill="#0fabfa" d="M 384.5,21.5 C 384.5,37.1667 384.5,52.8333 384.5,68.5C 378.137,68.9204 371.804,69.5871 365.5,70.5C 365.783,69.7109 366.283,69.0442 367,68.5C 367.816,53.0923 367.649,37.759 366.5,22.5C 372.471,21.7588 378.471,21.4255 384.5,21.5 Z"/></g>
<g><path style="opacity:0.972" fill="#10a5f9" d="M 384.5,21.5 C 389.833,21.8333 395.167,22.1667 400.5,22.5C 401.823,38.2645 401.823,53.9312 400.5,69.5C 395.155,69.3135 389.822,68.9801 384.5,68.5C 384.5,52.8333 384.5,37.1667 384.5,21.5 Z"/></g>
<g><path style="opacity:0.969" fill="#0eb1fa" d="M 366.5,22.5 C 367.649,37.759 367.816,53.0923 367,68.5C 366.283,69.0442 365.783,69.7109 365.5,70.5C 359.888,71.986 354.222,73.3193 348.5,74.5C 346.516,59.2023 345.849,43.5357 346.5,27.5C 352.836,24.916 359.502,23.2493 366.5,22.5 Z"/></g>
<g><path style="opacity:0.967" fill="#129ff9" d="M 400.5,22.5 C 407.246,23.8532 413.913,25.5199 420.5,27.5C 419.516,43.4225 419.183,59.4225 419.5,75.5C 418.5,75.5 417.5,75.5 416.5,75.5C 411.299,72.8888 405.966,70.8888 400.5,69.5C 401.823,53.9312 401.823,38.2645 400.5,22.5 Z"/></g>
<g><path style="opacity:0.965" fill="#09cafa" d="M 132.5,24.5 C 132.829,38.6766 132.496,52.6766 131.5,66.5C 127.833,66.5 124.167,66.5 120.5,66.5C 119.504,53.0102 119.171,39.3435 119.5,25.5C 123.824,25.0728 128.158,24.7395 132.5,24.5 Z"/></g>
<g><path style="opacity:0.958" fill="#08d1fa" d="M 119.5,25.5 C 119.171,39.3435 119.504,53.0102 120.5,66.5C 116.614,67.4902 112.614,68.4902 108.5,69.5C 107.669,56.0061 107.169,42.3395 107,28.5C 106.617,27.944 106.117,27.6107 105.5,27.5C 109.943,26.1985 114.609,25.5319 119.5,25.5 Z"/></g>
<g><path style="opacity:0.961" fill="#0bc4fa" d="M 132.5,24.5 C 136.538,25.0954 140.538,25.7621 144.5,26.5C 144.185,40.5787 144.518,54.5787 145.5,68.5C 140.676,68.0076 136.01,67.341 131.5,66.5C 132.496,52.6766 132.829,38.6766 132.5,24.5 Z"/></g>
<g><path style="opacity:0.962" fill="#0cbefa" d="M 144.5,26.5 C 148.534,26.5045 152.534,26.8379 156.5,27.5C 156.816,41.9118 156.482,56.2452 155.5,70.5C 152.237,69.5178 148.903,68.8511 145.5,68.5C 144.518,54.5787 144.185,40.5787 144.5,26.5 Z"/></g>
<g><path style="opacity:0.966" fill="#07d7fa" d="M 105.5,27.5 C 106.117,27.6107 106.617,27.944 107,28.5C 107.169,42.3395 107.669,56.0061 108.5,69.5C 103.575,71.6316 98.9085,74.2983 94.5,77.5C 95.1511,61.4643 94.4844,45.7977 92.5,30.5C 96.6151,29.0566 100.948,28.0566 105.5,27.5 Z"/></g>
<g><path style="opacity:0.968" fill="#0db8fa" d="M 156.5,27.5 C 160.705,27.7167 164.705,28.3833 168.5,29.5C 167.877,44.0772 168.544,58.4106 170.5,72.5C 165.463,72.0925 160.463,71.4258 155.5,70.5C 156.482,56.2452 156.816,41.9118 156.5,27.5 Z"/></g>
<g><path style="opacity:0.977" fill="#0db8fa" d="M 346.5,27.5 C 345.849,43.5357 346.516,59.2023 348.5,74.5C 341.462,77.1796 334.462,80.1796 327.5,83.5C 328.181,66.8634 328.847,50.1967 329.5,33.5C 334.714,30.4394 340.381,28.4394 346.5,27.5 Z"/></g>
<g><path style="opacity:0.963" fill="#1398f9" d="M 420.5,27.5 C 428.426,30.1294 435.759,33.7961 442.5,38.5C 441.791,39.404 440.791,39.7373 439.5,39.5C 439.83,59.3404 439.497,79.0071 438.5,98.5C 434.863,94.0171 431.363,89.3504 428,84.5C 423.825,81.8422 419.992,78.8422 416.5,75.5C 417.5,75.5 418.5,75.5 419.5,75.5C 419.183,59.4225 419.516,43.4225 420.5,27.5 Z"/></g>
<g><path style="opacity:0.97" fill="#0eb2f9" d="M 168.5,29.5 C 173.959,29.9921 179.292,30.9921 184.5,32.5C 182.545,46.2552 181.878,60.2552 182.5,74.5C 181.5,74.5 180.5,74.5 179.5,74.5C 176.273,74.3239 173.273,73.6572 170.5,72.5C 168.544,58.4106 167.877,44.0772 168.5,29.5 Z"/></g>
<g><path style="opacity:0.963" fill="#06ddfa" d="M 92.5,30.5 C 94.4844,45.7977 95.1511,61.4643 94.5,77.5C 90.8592,80.8049 87.1925,84.1383 83.5,87.5C 84.1318,69.5964 83.4651,51.9298 81.5,34.5C 84.7966,32.3987 88.4632,31.0653 92.5,30.5 Z"/></g>
<g><path style="opacity:0.971" fill="#0fabf9" d="M 184.5,32.5 C 187.63,32.6997 190.63,33.3664 193.5,34.5C 194.151,49.1968 194.817,63.8635 195.5,78.5C 189.98,77.4533 184.646,76.12 179.5,74.5C 180.5,74.5 181.5,74.5 182.5,74.5C 181.878,60.2552 182.545,46.2552 184.5,32.5 Z"/></g>
<g><path style="opacity:0.949" fill="#05e4fb" d="M 81.5,34.5 C 83.4651,51.9298 84.1318,69.5964 83.5,87.5C 72.3541,103.046 68.5208,120.38 72,139.5C 73.8583,153.949 78.0249,167.615 84.5,180.5C 83.6679,204.33 83.1679,228.33 83,252.5C 82.2904,251.027 81.1238,250.36 79.5,250.5C 75.7786,246.112 72.4453,241.445 69.5,236.5C 69.4849,171.285 69.4849,105.952 69.5,40.5C 72.9468,37.5623 76.9468,35.5623 81.5,34.5 Z"/></g>
<g><path style="opacity:0.959" fill="#11a5f9" d="M 193.5,34.5 C 198.227,35.2453 202.894,36.2453 207.5,37.5C 206.866,51.9617 206.199,66.295 205.5,80.5C 202.061,80.2122 198.728,79.5456 195.5,78.5C 194.817,63.8635 194.151,49.1968 193.5,34.5 Z"/></g>
<g><path style="opacity:0.967" fill="#0cbefa" d="M 329.5,33.5 C 328.847,50.1967 328.181,66.8634 327.5,83.5C 323.292,87.6849 318.292,90.6849 312.5,92.5C 311.195,76.7041 309.862,61.0375 308.5,45.5C 314.484,39.8764 321.484,35.8764 329.5,33.5 Z"/></g>
<g><path style="opacity:0.977" fill="#129ff9" d="M 207.5,37.5 C 210.833,38.1667 214.167,38.8333 217.5,39.5C 217.5,54.1667 217.5,68.8333 217.5,83.5C 213.239,83.1016 209.239,82.1016 205.5,80.5C 206.199,66.295 206.866,51.9617 207.5,37.5 Z"/></g>
<g><path style="opacity:0.979" fill="#1492f9" d="M 442.5,38.5 C 448.017,41.7705 453.017,45.7705 457.5,50.5C 458.833,120.5 458.833,190.5 457.5,260.5C 451.196,253.192 444.862,245.859 438.5,238.5C 439.833,215.167 439.833,191.833 438.5,168.5C 443.914,149.447 445.414,130.114 443,110.5C 441.765,106.369 440.265,102.369 438.5,98.5C 439.497,79.0071 439.83,59.3404 439.5,39.5C 440.791,39.7373 441.791,39.404 442.5,38.5 Z"/></g>
<g><path style="opacity:0.952" fill="#1399f8" d="M 217.5,39.5 C 222.685,41.5611 228.018,43.2278 233.5,44.5C 232.213,50.0912 231.546,55.9246 231.5,62C 231.667,67.5 231.833,73 232,78.5C 232.383,79.056 232.883,79.3893 233.5,79.5C 231.063,81.433 228.729,83.5997 226.5,86C 222.966,86.8639 219.966,86.0306 217.5,83.5C 217.5,68.8333 217.5,54.1667 217.5,39.5 Z"/></g>
<g><path style="opacity:0.985" fill="#03eafb" d="M 69.5,40.5 C 69.4849,105.952 69.4849,171.285 69.5,236.5C 65.2665,231.046 61.2665,225.38 57.5,219.5C 57.5,163.167 57.5,106.833 57.5,50.5C 61.183,46.8197 65.183,43.4864 69.5,40.5 Z"/></g>
<g><path style="opacity:0.961" fill="#1492f9" d="M 233.5,44.5 C 237.025,45.2097 240.358,46.2097 243.5,47.5C 244.464,54.7463 244.797,62.0796 244.5,69.5C 240.859,72.8049 237.192,76.1383 233.5,79.5C 232.883,79.3893 232.383,79.056 232,78.5C 231.833,73 231.667,67.5 231.5,62C 231.546,55.9246 232.213,50.0912 233.5,44.5 Z"/></g>
<g><path style="opacity:0.963" fill="#0bc4fa" d="M 308.5,45.5 C 309.862,61.0375 311.195,76.7041 312.5,92.5C 305.692,96.4051 298.692,100.072 291.5,103.5C 293.436,87.3373 294.102,71.0039 293.5,54.5C 298.233,51.1101 303.233,48.1101 308.5,45.5 Z"/></g>
<g><path style="opacity:0.921" fill="#168cf9" d="M 243.5,47.5 C 248.889,48.3469 254.223,49.5136 259.5,51C 261.286,51.1962 262.619,52.0295 263.5,53.5C 257.172,58.8267 250.839,64.1601 244.5,69.5C 244.797,62.0796 244.464,54.7463 243.5,47.5 Z"/></g>
<g><path style="opacity:0.985" fill="#02f0fb" d="M 57.5,50.5 C 57.5,106.833 57.5,163.167 57.5,219.5C 52.9302,212.704 48.5969,205.704 44.5,198.5C 45.4987,153.67 45.8321,108.67 45.5,63.5C 48.0905,57.9078 52.0905,53.5744 57.5,50.5 Z"/></g>
<g><path style="opacity:0.975" fill="#158cf9" d="M 457.5,50.5 C 462.511,55.3492 467.011,60.6825 471,66.5C 473.372,69.9099 475.205,73.5766 476.5,77.5C 475.188,115.988 475.188,154.655 476.5,193.5C 471.324,215.872 465.824,238.205 460,260.5C 459.023,261.774 458.189,261.774 457.5,260.5C 458.833,190.5 458.833,120.5 457.5,50.5 Z"/></g>
<g><path style="opacity:0.962" fill="#09cbfa" d="M 293.5,54.5 C 294.102,71.0039 293.436,87.3373 291.5,103.5C 285.959,106.437 280.292,109.104 274.5,111.5C 272.518,97.8733 271.851,83.8733 272.5,69.5C 278.963,63.7665 285.963,58.7665 293.5,54.5 Z"/></g>
<g><path style="opacity:0.96" fill="#01f6fb" d="M 45.5,63.5 C 45.8321,108.67 45.4987,153.67 44.5,198.5C 39.2658,192.032 35.5991,184.698 33.5,176.5C 34.4922,144.573 34.8255,112.573 34.5,80.5C 36.9243,73.9735 40.5909,68.3068 45.5,63.5 Z"/></g>
<g><path style="opacity:0.957" fill="#08d1fa" d="M 272.5,69.5 C 271.851,83.8733 272.518,97.8733 274.5,111.5C 268.818,115.008 262.818,118.008 256.5,120.5C 255.833,107.833 255.167,95.1667 254.5,82.5C 260.109,77.6889 266.109,73.3556 272.5,69.5 Z"/></g>
<g><path style="opacity:0.88" fill="#1687f9" d="M 476.5,77.5 C 483.786,93.9338 487.119,111.267 486.5,129.5C 485.962,151.388 482.629,172.721 476.5,193.5C 475.188,154.655 475.188,115.988 476.5,77.5 Z"/></g>
<g><path style="opacity:0.846" fill="#00fbfb" d="M 34.5,80.5 C 34.8255,112.573 34.4922,144.573 33.5,176.5C 19.849,144.331 20.1823,112.331 34.5,80.5 Z"/></g>
<g><path style="opacity:0.959" fill="#07d7fa" d="M 254.5,82.5 C 255.167,95.1667 255.833,107.833 256.5,120.5C 250.211,123.826 243.878,127.159 237.5,130.5C 239.152,118.992 238.819,107.659 236.5,96.5C 242.19,91.4821 248.19,86.8154 254.5,82.5 Z"/></g>
<g><path style="opacity:0.935" fill="#06ddfa" d="M 236.5,96.5 C 238.819,107.659 239.152,118.992 237.5,130.5C 231.776,134.029 225.776,137.029 219.5,139.5C 219.5,129.5 219.5,119.5 219.5,109.5C 225.347,105.409 231.013,101.076 236.5,96.5 Z"/></g>
<g><path style="opacity:0.908" fill="#04e4fb" d="M 219.5,109.5 C 219.5,119.5 219.5,129.5 219.5,139.5C 212.965,143.017 206.298,146.35 199.5,149.5C 199.666,142.159 199.5,134.826 199,127.5C 198.329,128.252 197.496,128.586 196.5,128.5C 197.96,126.537 199.627,124.704 201.5,123C 207.709,118.734 213.709,114.234 219.5,109.5 Z"/></g>
<g><path style="opacity:0.92" fill="#00fdfb" d="M 486.5,371.5 C 485.504,371.414 484.671,371.748 484,372.5C 468.616,365.629 453.116,358.963 437.5,352.5C 436.817,352.863 436.15,353.196 435.5,353.5C 433.205,348.452 431.371,343.118 430,337.5C 425.268,330.427 420.935,323.094 417,315.5C 386.59,255.344 356.256,195.344 326,135.5C 325.251,134.365 325.417,133.365 326.5,132.5C 345.592,152.76 363.425,174.094 380,196.5C 413.086,235.074 443.253,275.741 470.5,318.5C 479.065,335.196 484.399,352.862 486.5,371.5 Z"/></g>
<g><path style="opacity:0.869" fill="#03eefb" d="M 199.5,149.5 C 188.27,155.948 176.603,161.614 164.5,166.5C 164.964,162.498 164.298,158.831 162.5,155.5C 173.809,146.53 185.142,137.53 196.5,128.5C 197.496,128.586 198.329,128.252 199,127.5C 199.5,134.826 199.666,142.159 199.5,149.5 Z"/></g>
<g><path style="opacity:0.758" fill="#01f7fb" d="M 162.5,155.5 C 164.298,158.831 164.964,162.498 164.5,166.5C 155.712,172.4 146.378,177.566 136.5,182C 135.056,182.781 133.723,182.614 132.5,181.5C 142.199,172.466 152.199,163.8 162.5,155.5 Z"/></g>
<g><path style="opacity:0.929" fill="#1397f9" d="M 438.5,168.5 C 439.833,191.833 439.833,215.167 438.5,238.5C 433.512,233.508 428.846,228.175 424.5,222.5C 430.415,204.843 435.081,186.843 438.5,168.5 Z"/></g>
<g><path style="opacity:0.961" fill="#06ddfa" d="M 84.5,180.5 C 89.3542,188.208 93.6875,196.208 97.5,204.5C 97.5654,204.938 97.3988,205.272 97,205.5C 96.0853,204.672 95.4186,203.672 95,202.5C 94.5,224.831 94.3334,247.164 94.5,269.5C 89.2701,263.387 84.2701,257.054 79.5,250.5C 81.1238,250.36 82.2904,251.027 83,252.5C 83.1679,228.33 83.6679,204.33 84.5,180.5 Z"/></g>
<g><path style="opacity:0.963" fill="#07d7fa" d="M 97.5,204.5 C 101.07,211.309 104.403,218.309 107.5,225.5C 107.787,244.333 107.453,263.333 106.5,282.5C 105.583,281.873 104.583,281.539 103.5,281.5C 100.5,277.5 97.5,273.5 94.5,269.5C 94.3334,247.164 94.5,224.831 95,202.5C 95.4186,203.672 96.0853,204.672 97,205.5C 97.3988,205.272 97.5654,204.938 97.5,204.5 Z"/></g>
<g><path style="opacity:0.99" fill="#09cbf9" d="M 244.5,217.5 C 245.5,217.5 246.5,217.5 247.5,217.5C 248.489,239.758 248.822,262.092 248.5,284.5C 247.5,284.5 246.5,284.5 245.5,284.5C 245.167,284.5 244.833,284.5 244.5,284.5C 243.176,262.196 243.176,239.863 244.5,217.5 Z"/></g>
<g><path style="opacity:0.982" fill="#0cc0fa" d="M 247.5,217.5 C 249.833,217.5 252.167,217.5 254.5,217.5C 254.5,239.833 254.5,262.167 254.5,284.5C 251.5,285.833 248.5,285.833 245.5,284.5C 246.5,284.5 247.5,284.5 248.5,284.5C 248.822,262.092 248.489,239.758 247.5,217.5 Z"/></g>
<g><path style="opacity:0.979" fill="#07d5fa" d="M 244.5,217.5 C 243.176,239.863 243.176,262.196 244.5,284.5C 241.603,283.871 238.936,282.871 236.5,281.5C 236.877,260.51 237.877,239.51 239.5,218.5C 241.117,217.962 242.784,217.629 244.5,217.5 Z"/></g>
<g><path style="opacity:0.984" fill="#0eb4fa" d="M 254.5,217.5 C 257.237,217.401 259.904,217.735 262.5,218.5C 261.512,240.091 261.178,261.758 261.5,283.5C 259.393,284.468 257.059,284.802 254.5,284.5C 254.5,262.167 254.5,239.833 254.5,217.5 Z"/></g>
<g><path style="opacity:0.981" fill="#10a9f9" d="M 262.5,218.5 C 265.331,219.079 267.664,220.412 269.5,222.5C 268.503,241.659 268.17,260.993 268.5,280.5C 266.574,282.293 264.241,283.293 261.5,283.5C 261.178,261.758 261.512,240.091 262.5,218.5 Z"/></g>
<g><path style="opacity:0.963" fill="#05e3fa" d="M 239.5,218.5 C 237.877,239.51 236.877,260.51 236.5,281.5C 232.458,280.149 229.125,277.815 226.5,274.5C 226.83,258.991 226.496,243.658 225.5,228.5C 229.072,223.707 233.738,220.374 239.5,218.5 Z"/></g>
<g><path style="opacity:0.962" fill="#139bf9" d="M 269.5,222.5 C 272.453,223.787 274.786,225.787 276.5,228.5C 275.167,243.833 275.167,259.167 276.5,274.5C 274.2,276.984 271.533,278.984 268.5,280.5C 268.17,260.993 268.503,241.659 269.5,222.5 Z"/></g>
<g><path style="opacity:0.948" fill="#08d1fa" d="M 107.5,225.5 C 112.228,233.58 116.562,241.913 120.5,250.5C 119.806,267.039 119.139,283.705 118.5,300.5C 113.27,294.387 108.27,288.054 103.5,281.5C 104.583,281.539 105.583,281.873 106.5,282.5C 107.453,263.333 107.787,244.333 107.5,225.5 Z"/></g>
<g><path style="opacity:0.934" fill="#02f4fb" d="M 225.5,228.5 C 226.496,243.658 226.83,258.991 226.5,274.5C 219.779,268.204 216.779,260.371 217.5,251C 216.741,242.164 219.407,234.664 225.5,228.5 Z"/></g>
<g><path style="opacity:0.885" fill="#158df9" d="M 276.5,228.5 C 279.624,230.724 281.791,233.724 283,237.5C 287.365,251.142 285.199,263.476 276.5,274.5C 275.167,259.167 275.167,243.833 276.5,228.5 Z"/></g>
<g><path style="opacity:0.929" fill="#09cbfa" d="M 120.5,250.5 C 124.694,259.377 129.361,268.043 134.5,276.5C 132.518,289.792 131.851,303.459 132.5,317.5C 127.108,312.44 122.441,306.774 118.5,300.5C 119.139,283.705 119.806,267.039 120.5,250.5 Z"/></g>
<g><path style="opacity:0.931" fill="#1497f9" d="M 69.5,269.5 C 60.6071,271.951 51.9404,274.951 43.5,278.5C 46.2997,268.967 48.633,259.3 50.5,249.5C 51.8221,249.33 52.9887,249.663 54,250.5C 59.0008,256.998 64.1674,263.331 69.5,269.5 Z"/></g>
<g><path style="opacity:0.911" fill="#0bc2fa" d="M 134.5,276.5 C 141.831,291.829 149.164,307.162 156.5,322.5C 157.13,330.243 156.463,337.576 154.5,344.5C 147.197,335.525 139.863,326.525 132.5,317.5C 131.851,303.459 132.518,289.792 134.5,276.5 Z"/></g>
<g><path style="opacity:0.954" fill="#11a3f9" d="M 69.5,269.5 C 73.1803,273.183 76.5136,277.183 79.5,281.5C 79.5858,282.496 79.2524,283.329 78.5,284C 65.2376,289.136 51.9043,293.969 38.5,298.5C 39.5435,291.66 41.2101,284.993 43.5,278.5C 51.9404,274.951 60.6071,271.951 69.5,269.5 Z"/></g>
<g><path style="opacity:0.952" fill="#0fabfa" d="M 79.5,281.5 C 82.1963,283.199 84.1963,285.533 85.5,288.5C 85.0576,289.739 84.3909,290.739 83.5,291.5C 67.0168,296.746 51.0168,303.08 35.5,310.5C 36.0085,306.264 37.0085,302.264 38.5,298.5C 51.9043,293.969 65.2376,289.136 78.5,284C 79.2524,283.329 79.5858,282.496 79.5,281.5 Z"/></g>
<g><path style="opacity:0.972" fill="#0eb2fa" d="M 83.5,291.5 C 83.1016,295.761 82.1016,299.761 80.5,303.5C 69.7473,307.041 59.0807,310.874 48.5,315C 43.7707,316.782 39.2707,318.949 35,321.5C 34.2828,320.956 33.7828,320.289 33.5,319.5C 33.6997,316.37 34.3664,313.37 35.5,310.5C 51.0168,303.08 67.0168,296.746 83.5,291.5 Z"/></g>
<g><path style="opacity:0.966" fill="#0db8fa" d="M 80.5,303.5 C 80.1016,307.761 79.1016,311.761 77.5,315.5C 77.6309,314.624 77.2975,313.957 76.5,313.5C 62.1866,319.905 47.6866,325.905 33,331.5C 32.2917,330.619 31.4584,329.953 30.5,329.5C 31.5095,326.076 32.5095,322.743 33.5,319.5C 33.7828,320.289 34.2828,320.956 35,321.5C 39.2707,318.949 43.7707,316.782 48.5,315C 59.0807,310.874 69.7473,307.041 80.5,303.5 Z"/></g>
<g><path style="opacity:0.972" fill="#0cc0fa" d="M 77.5,315.5 C 76.3239,321.87 74.9906,328.204 73.5,334.5C 58.3133,339.564 43.3133,345.23 28.5,351.5C 27.7025,351.043 27.3691,350.376 27.5,349.5C 28.2411,342.794 29.2411,336.128 30.5,329.5C 31.4584,329.953 32.2917,330.619 33,331.5C 47.6866,325.905 62.1866,319.905 76.5,313.5C 77.2975,313.957 77.6309,314.624 77.5,315.5 Z"/></g>
<g><path style="opacity:0.87" fill="#0eb7fa" d="M 156.5,322.5 C 166.355,340.247 175.689,358.414 184.5,377C 184.167,377.5 183.833,378 183.5,378.5C 173.068,367.741 163.401,356.408 154.5,344.5C 156.463,337.576 157.13,330.243 156.5,322.5 Z"/></g>
<g><path style="opacity:0.935" fill="#00fdfb" d="M 31.5,427.5 C 45.0687,422.215 58.7354,417.215 72.5,412.5C 85.8721,435.352 105.872,445.185 132.5,442C 150.476,440.257 167.476,435.257 183.5,427C 189.166,422.831 195.166,419.165 201.5,416C 258.802,387.015 316.135,358.015 373.5,329C 374.944,328.219 376.277,328.386 377.5,329.5C 358.212,347.624 337.879,364.457 316.5,380C 313.833,382.667 311.167,385.333 308.5,388C 288.881,402.618 269.547,417.618 250.5,433C 232.655,446.418 214.322,459.085 195.5,471C 155.288,493.56 114.288,495.227 72.5,476C 53.3182,464.454 39.6516,448.287 31.5,427.5 Z"/></g>
<g><path style="opacity:0.954" fill="#09cbfa" d="M 73.5,334.5 C 72.6085,338.975 71.6085,343.308 70.5,347.5C 70.631,346.761 70.4643,346.094 70,345.5C 54.6045,351.453 39.4379,357.786 24.5,364.5C 25.0993,359.306 26.0993,354.306 27.5,349.5C 27.3691,350.376 27.7025,351.043 28.5,351.5C 43.3133,345.23 58.3133,339.564 73.5,334.5 Z"/></g>
<g><path style="opacity:0.965" fill="#02f4fb" d="M 486.5,371.5 C 486.5,378.167 486.5,384.833 486.5,391.5C 470.418,384.481 454.418,377.481 438.5,370.5C 437.608,364.812 436.608,359.146 435.5,353.5C 436.15,353.196 436.817,352.863 437.5,352.5C 453.116,358.963 468.616,365.629 484,372.5C 484.671,371.748 485.504,371.414 486.5,371.5 Z"/></g>
<g><path style="opacity:0.965" fill="#08d5fa" d="M 70.5,347.5 C 69.8241,353.888 68.8241,360.222 67.5,366.5C 53.3014,371.234 39.3014,376.567 25.5,382.5C 24.2528,380.994 24.2528,379.494 25.5,378C 24.9056,377.536 24.2389,377.369 23.5,377.5C 24.1995,373.202 24.5328,368.869 24.5,364.5C 39.4379,357.786 54.6045,351.453 70,345.5C 70.4643,346.094 70.631,346.761 70.5,347.5 Z"/></g>
<g><path style="opacity:0.961" fill="#05e1fa" d="M 67.5,366.5 C 66.614,373.141 65.9473,379.808 65.5,386.5C 52.1605,391.504 38.8272,396.504 25.5,401.5C 24.2831,393.693 23.6164,385.693 23.5,377.5C 24.2389,377.369 24.9056,377.536 25.5,378C 24.2528,379.494 24.2528,380.994 25.5,382.5C 39.3014,376.567 53.3014,371.234 67.5,366.5 Z"/></g>
<g><path style="opacity:0.965" fill="#04e6fb" d="M 438.5,370.5 C 454.418,377.481 470.418,384.481 486.5,391.5C 486.236,397.422 485.236,403.089 483.5,408.5C 468.896,402.851 454.23,397.184 439.5,391.5C 439.674,384.465 439.341,377.465 438.5,370.5 Z"/></g>
<g><path style="opacity:0.956" fill="#03eefb" d="M 65.5,386.5 C 66.1667,391.833 66.8333,397.167 67.5,402.5C 67.5858,403.496 67.2524,404.329 66.5,405C 53.8808,409.648 41.5474,414.814 29.5,420.5C 27.164,414.493 25.8307,408.159 25.5,401.5C 38.8272,396.504 52.1605,391.504 65.5,386.5 Z"/></g>
<g><path style="opacity:0.971" fill="#07d9fa" d="M 439.5,391.5 C 454.23,397.184 468.896,402.851 483.5,408.5C 482.715,415.003 480.715,421.003 477.5,426.5C 476.251,424.864 474.584,423.697 472.5,423C 460.254,418.034 448.254,412.868 436.5,407.5C 437.715,402.209 438.715,396.876 439.5,391.5 Z"/></g>
<g><path style="opacity:0.959" fill="#01f6fb" d="M 67.5,402.5 C 69.1528,405.759 70.8195,409.093 72.5,412.5C 58.7354,417.215 45.0687,422.215 31.5,427.5C 30.4336,425.299 29.767,422.965 29.5,420.5C 41.5474,414.814 53.8808,409.648 66.5,405C 67.2524,404.329 67.5858,403.496 67.5,402.5 Z"/></g>
<g><path style="opacity:0.957" fill="#08d1fa" d="M 436.5,407.5 C 448.254,412.868 460.254,418.034 472.5,423C 474.584,423.697 476.251,424.864 477.5,426.5C 477.293,429.241 476.293,431.574 474.5,433.5C 460.726,426.447 446.392,420.78 431.5,416.5C 433.45,413.594 435.117,410.594 436.5,407.5 Z"/></g>
<g><path style="opacity:0.969" fill="#09caf9" d="M 431.5,416.5 C 446.392,420.78 460.726,426.447 474.5,433.5C 473.712,437.438 471.712,440.438 468.5,442.5C 468.586,441.504 468.252,440.671 467.5,440C 453.694,434.571 440.027,429.071 426.5,423.5C 428.555,421.445 430.221,419.112 431.5,416.5 Z"/></g>
<g><path style="opacity:0.975" fill="#129ff9" d="M 321.5,434.5 C 355.246,449.705 389.246,464.371 423.5,478.5C 419.499,480.589 415.165,481.922 410.5,482.5C 409.942,481.21 408.942,480.377 407.5,480C 365.047,463.264 323.047,445.764 281.5,427.5C 282.607,426.008 284.107,425.008 286,424.5C 297.903,427.931 309.737,431.265 321.5,434.5 Z"/></g>
<g><path style="opacity:0.984" fill="#1399f9" d="M 281.5,427.5 C 323.047,445.764 365.047,463.264 407.5,480C 408.942,480.377 409.942,481.21 410.5,482.5C 405.266,483.868 399.933,484.868 394.5,485.5C 355.609,469.398 316.609,453.231 277.5,437C 276.058,436.623 275.058,435.79 274.5,434.5C 276.5,431.833 278.833,429.5 281.5,427.5 Z"/></g>
<g><path style="opacity:0.987" fill="#0cc0fa" d="M 426.5,423.5 C 440.027,429.071 453.694,434.571 467.5,440C 468.252,440.671 468.586,441.504 468.5,442.5C 467.191,445.778 465.358,448.778 463,451.5C 461.629,453.041 460.129,454.375 458.5,455.5C 443.773,448.47 428.773,441.803 413.5,435.5C 417.807,431.528 422.141,427.528 426.5,423.5 Z"/></g>
<g><path style="opacity:0.977" fill="#1492f9" d="M 274.5,434.5 C 275.058,435.79 276.058,436.623 277.5,437C 316.609,453.231 355.609,469.398 394.5,485.5C 386.489,486.613 378.489,486.613 370.5,485.5C 369.571,484.685 368.571,483.852 367.5,483C 338.914,471.138 310.247,459.471 281.5,448C 276.613,445.726 271.946,443.226 267.5,440.5C 269.239,437.757 271.573,435.757 274.5,434.5 Z"/></g>
<g><path style="opacity:0.973" fill="#0db8fa" d="M 413.5,435.5 C 428.773,441.803 443.773,448.47 458.5,455.5C 456.5,458.167 454.167,460.5 451.5,462.5C 451.423,461.25 450.756,460.417 449.5,460C 433.913,454.532 418.913,448.032 404.5,440.5C 407.304,438.595 410.304,436.929 413.5,435.5 Z"/></g>
<g><path style="opacity:0.955" fill="#10a5f9" d="M 321.5,434.5 C 334.971,437.084 348.304,439.751 361.5,442.5C 384.328,453.067 407.661,462.901 431.5,472C 432.756,472.417 433.423,473.25 433.5,474.5C 430.482,476.4 427.149,477.733 423.5,478.5C 389.246,464.371 355.246,449.705 321.5,434.5 Z"/></g>
<g><path style="opacity:0.962" fill="#158cf9" d="M 267.5,440.5 C 271.946,443.226 276.613,445.726 281.5,448C 310.247,459.471 338.914,471.138 367.5,483C 368.571,483.852 369.571,484.685 370.5,485.5C 358.954,484.407 347.62,482.74 336.5,480.5C 336.294,478.451 335.461,478.117 334,479.5C 332.992,477.741 331.492,476.574 329.5,476C 306,466.781 282.666,457.281 259.5,447.5C 261.549,444.45 264.216,442.117 267.5,440.5 Z"/></g>
<g><path style="opacity:0.968" fill="#0eb1fa" d="M 404.5,440.5 C 418.913,448.032 433.913,454.532 449.5,460C 450.756,460.417 451.423,461.25 451.5,462.5C 449.14,464.853 446.473,466.853 443.5,468.5C 424.967,460.881 406.634,452.881 388.5,444.5C 393.889,443.486 399.223,442.153 404.5,440.5 Z"/></g>
<g><path style="opacity:0.953" fill="#0fabfa" d="M 361.5,442.5 C 370.49,443.287 379.49,443.954 388.5,444.5C 406.634,452.881 424.967,460.881 443.5,468.5C 440.839,471.502 437.505,473.502 433.5,474.5C 433.423,473.25 432.756,472.417 431.5,472C 407.661,462.901 384.328,453.067 361.5,442.5 Z"/></g>
<g><path style="opacity:0.89" fill="#1686f9" d="M 259.5,447.5 C 282.666,457.281 306,466.781 329.5,476C 331.492,476.574 332.992,477.741 334,479.5C 335.461,478.117 336.294,478.451 336.5,480.5C 305.976,474.869 275.976,467.369 246.5,458C 250.132,453.532 254.466,450.032 259.5,447.5 Z"/></g>
</svg>
